<?xml version="1.0" encoding="UTF-8"?>
<svg xmlns="http://www.w3.org/2000/svg" xmlns:xlink="http://www.w3.org/1999/xlink" width="403.82pt" height="643.42pt" viewBox="0 0 403.82 643.42" version="1.1">
<g id="surface1">
<path style=" stroke:none;fill-rule:nonzero;fill:rgb(97.999573%,76.499939%,19.599915%);fill-opacity:1;" d="M 0 643.421875 L 403.824219 643.421875 L 403.824219 -0.00390625 L 0 -0.00390625 Z M 0 643.421875 "/>
<path style=" stroke:none;fill-rule:evenodd;fill:rgb(97.999573%,76.499939%,19.599915%);fill-opacity:1;" d="M 312.289063 74.148438 L 86.917969 74.148438 C 63.992188 74.148438 45.238281 92.910156 45.238281 115.839844 L 45.238281 509.460938 C 45.238281 532.386719 63.992188 551.152344 86.917969 551.152344 L 312.289063 551.152344 C 335.214844 551.152344 353.96875 532.386719 353.96875 509.460938 L 353.96875 115.839844 C 353.96875 92.910156 335.214844 74.148438 312.289063 74.148438 "/>
<path style=" stroke:none;fill-rule:nonzero;fill:rgb(13.299561%,34.899902%,60.798645%);fill-opacity:1;" d="M 86.917969 77.347656 C 65.699219 77.347656 48.4375 94.617188 48.4375 115.84375 L 48.4375 509.460938 C 48.4375 530.6875 65.699219 547.949219 86.917969 547.949219 L 312.289063 547.949219 C 333.507813 547.949219 350.769531 530.6875 350.769531 509.460938 L 350.769531 115.84375 C 350.769531 94.617188 333.507813 77.347656 312.289063 77.347656 Z M 312.289063 554.351563 L 86.917969 554.351563 C 62.171875 554.351563 42.039063 534.214844 42.039063 509.460938 L 42.039063 115.84375 C 42.039063 91.089844 62.171875 70.949219 86.917969 70.949219 L 312.289063 70.949219 C 337.035156 70.949219 357.167969 91.089844 357.167969 115.84375 L 357.167969 509.460938 C 357.167969 534.214844 337.035156 554.351563 312.289063 554.351563 "/>
<path style=" stroke:none;fill-rule:evenodd;fill:rgb(13.299561%,34.899902%,60.798645%);fill-opacity:1;" d="M 309.40625 81.277344 L 89.800781 81.277344 C 69.671875 81.277344 53.199219 98.09375 53.199219 118.636719 L 53.199219 505.574219 C 53.199219 526.128906 69.671875 542.9375 89.800781 542.9375 L 309.40625 542.9375 C 329.535156 542.9375 346.007813 526.128906 346.007813 505.574219 L 346.007813 118.636719 C 346.007813 98.09375 329.535156 81.277344 309.40625 81.277344 "/>
<path style=" stroke:none;fill-rule:evenodd;fill:rgb(9.799194%,63.899231%,29.798889%);fill-opacity:1;" d="M 346.007813 422.5625 C 331.789063 430.4375 299.054688 449.214844 260.433594 449.578125 C 221.8125 449.941406 111.734375 424.253906 53.199219 431.105469 L 53.199219 505.578125 C 53.199219 526.128906 69.671875 542.941406 89.800781 542.941406 L 309.40625 542.941406 C 329.535156 542.941406 346.007813 526.128906 346.007813 505.578125 "/>
<path style=" stroke:none;fill-rule:evenodd;fill:rgb(100%,100%,100%);fill-opacity:1;" d="M 303.746094 462.261719 C 321.554688 462.261719 335.996094 476.699219 335.996094 494.503906 C 335.996094 512.3125 321.554688 526.753906 303.746094 526.753906 C 285.941406 526.753906 271.5 512.3125 271.5 494.503906 C 271.5 476.699219 285.941406 462.261719 303.746094 462.261719 "/>
<path style=" stroke:none;fill-rule:evenodd;fill:rgb(100%,100%,100%);fill-opacity:1;" d="M 52.109375 448.515625 L 56.339844 445.867188 L 60.300781 444.550781 C 60.300781 444.550781 76.230469 449.703125 77.484375 450.101563 C 78.742188 450.492188 96.167969 448.9375 103.125 447.71875 C 110.082031 446.503906 132.585938 399.074219 133.523438 397.765625 C 134.460938 396.449219 156.300781 415.441406 162.011719 415.585938 C 167.71875 415.734375 177.921875 412.765625 180.445313 414.730469 C 186.4375 419.378906 198.824219 426.074219 199.46875 429.351563 L 203.832031 451.421875 L 201.71875 452.742188 L 201.320313 458.820313 C 200.9375 464.726563 203.050781 459.511719 205.816406 462.261719 C 206.351563 462.796875 206.726563 465.628906 208.859375 469.039063 C 213.226563 476.027344 221.1875 487.105469 226.492188 497.589844 C 231.890625 508.265625 235.160156 518.242188 235.023438 519.085938 L 234.117188 524.605469 L 232.082031 527.351563 C 229.652344 530.636719 229.855469 534.355469 229.207031 537.988281 L 229.871094 540.628906 L 229.738281 545.25 L 309.5625 545.25 C 309.738281 541.117188 311.5 542.527344 306.527344 537.726563 L 296.875 535.214844 L 287.359375 530.984375 L 281.367188 526.476563 L 270.96875 522.65625 L 269.15625 507.769531 L 266.34375 504.683594 C 266.007813 502.523438 265.511719 500.097656 264.90625 497.503906 C 264.300781 494.910156 263.582031 492.140625 262.796875 489.296875 C 262.007813 486.453125 261.152344 483.53125 260.265625 480.617188 C 259.386719 477.714844 258.476563 474.816406 257.582031 472.03125 C 256.6875 469.242188 255.8125 466.554688 254.992188 464.070313 C 254.171875 461.589844 253.410156 459.300781 252.75 457.304688 C 252.09375 455.3125 251.535156 453.609375 251.121094 452.289063 C 250.707031 450.96875 249.964844 449.828125 250.355469 449.570313 L 252.730469 447.980469 L 251.9375 440.84375 L 245.476563 437.710938 L 224.714844 387.324219 C 207.621094 367.675781 185.769531 350.1875 164.449219 334.0625 L 161.246094 300.214844 L 162.597656 286.480469 C 177.402344 293.617188 193.789063 303.660156 208.328125 307.101563 C 218.8125 304.898438 237.226563 302.953125 242.160156 297.578125 C 245.359375 294.128906 242.394531 289.730469 241.226563 286.554688 C 240.0625 283.371094 243.703125 278.640625 240.246094 276.574219 C 236.789063 274.515625 242.289063 274.8125 240.046875 271.941406 L 228.152344 269.824219 L 220.75 273.003906 L 217.578125 280.40625 C 212.621094 276.308594 206.871094 273.269531 202.707031 268.117188 L 193.257813 260.3125 L 184.800781 258.199219 C 173.699219 247.890625 165.769531 234.9375 156.253906 223.308594 C 155.109375 213.617188 153.964844 194.40625 151.234375 192.648438 L 138.769531 185.824219 L 134.578125 181.015625 L 137.222656 173.617188 C 140.023438 172.808594 146.742188 172.273438 147.429688 167.84375 C 150.097656 164.769531 149.613281 162.289063 151.558594 161.15625 C 155.835938 158.660156 160.691406 160.199219 160.878906 156.699219 L 161.273438 149.296875 C 161.273438 149.296875 163.390625 145.929688 165.769531 138.390625 C 166.328125 136.628906 166.953125 127.960938 167.71875 126.363281 C 170.625 120.308594 169.46875 120.054688 168.941406 118.105469 C 168.207031 115.40625 160.453125 94.410156 142.164063 90.195313 C 131.117188 87.648438 116.96875 84.265625 108.527344 95.617188 C 106.398438 98.480469 105.152344 100.257813 103.765625 103.503906 C 100.90625 110.199219 99.191406 118.160156 99.144531 124.613281 C 99.097656 131.058594 101.113281 135.378906 97.707031 135.554688 C 95.0625 135.683594 88.71875 139.121094 89.117188 141.230469 C 89.644531 144.804688 92.945313 147.574219 90.570313 148.902344 C 82.207031 148.808594 70.898438 150.15625 66.515625 152.601563 L 48.4375 160.273438 L 48.410156 222.78125 L 50.507813 212.867188 L 54.226563 211.679688 L 59.511719 214.851563 L 76.425781 287.804688 L 87.53125 289.914063 L 74.84375 314.230469 L 72.726563 340.671875 L 79.070313 354.414063 L 78.015625 409.394531 L 51.582031 398.820313 "/>
<path style=" stroke:none;fill-rule:evenodd;fill:rgb(96.099854%,78.399658%,11.799622%);fill-opacity:1;" d="M 304.894531 313.179688 L 298.339844 333.117188 L 276.65625 332.96875 L 294.285156 345.140625 L 287.441406 364.984375 L 304.894531 352.574219 L 322.351563 364.984375 L 315.503906 345.140625 L 333.136719 332.96875 L 311.453125 333.117188 "/>
<path style=" stroke:none;fill-rule:evenodd;fill:rgb(96.099854%,78.399658%,11.799622%);fill-opacity:1;" d="M 304.894531 258.199219 L 298.339844 278.136719 L 276.65625 277.984375 L 294.285156 290.160156 L 287.441406 310.007813 L 304.894531 297.59375 L 322.351563 310.007813 L 315.503906 290.160156 L 333.136719 277.984375 L 311.453125 278.136719 "/>
<path style=" stroke:none;fill-rule:evenodd;fill:rgb(96.099854%,78.399658%,11.799622%);fill-opacity:1;" d="M 304.894531 147.773438 L 298.339844 167.710938 L 276.65625 167.558594 L 294.285156 179.734375 L 287.441406 199.582031 L 304.894531 187.171875 L 322.351563 199.582031 L 315.503906 179.734375 L 333.136719 167.558594 L 311.453125 167.710938 "/>
<path style=" stroke:none;fill-rule:evenodd;fill:rgb(96.099854%,78.399658%,11.799622%);fill-opacity:1;" d="M 304.894531 202.160156 L 298.339844 222.097656 L 276.65625 221.949219 L 294.285156 234.121094 L 287.441406 253.96875 L 304.894531 241.558594 L 322.351563 253.96875 L 315.503906 234.121094 L 333.136719 221.949219 L 311.453125 222.097656 "/>
<path style=" stroke:none;fill-rule:evenodd;fill:rgb(96.099854%,78.399658%,11.799622%);fill-opacity:1;" d="M 304.894531 93.261719 L 298.339844 113.199219 L 276.65625 113.046875 L 294.285156 125.222656 L 287.441406 145.066406 L 304.894531 132.65625 L 322.351563 145.066406 L 315.503906 125.222656 L 333.136719 113.046875 L 311.453125 113.199219 "/>
<path style=" stroke:none;fill-rule:nonzero;fill:rgb(5.099487%,45.498657%,65.899658%);fill-opacity:1;" d="M 68.847656 586.660156 L 68.847656 595.824219 L 74.128906 595.824219 C 76.445313 595.824219 77.933594 595.703125 78.59375 595.460938 C 79.246094 595.21875 79.800781 594.746094 80.246094 594.035156 C 80.695313 593.328125 80.914063 592.425781 80.914063 591.335938 C 80.914063 590.214844 80.679688 589.289063 80.199219 588.5625 C 79.722656 587.839844 79.089844 587.34375 78.296875 587.066406 C 77.507813 586.796875 75.890625 586.660156 73.449219 586.660156 Z M 68.847656 572.996094 L 68.847656 580.9375 L 72.597656 580.9375 C 74.847656 580.9375 76.238281 580.898438 76.769531 580.824219 C 77.738281 580.667969 78.492188 580.257813 79.039063 579.59375 C 79.589844 578.929688 79.863281 578.023438 79.863281 576.886719 C 79.863281 575.871094 79.640625 575.046875 79.195313 574.414063 C 78.746094 573.78125 78.210938 573.386719 77.578125 573.226563 C 76.945313 573.074219 75.128906 572.996094 72.128906 572.996094 Z M 63.175781 567.273438 L 74.460938 567.273438 C 77.539063 567.273438 79.707031 567.554688 80.960938 568.121094 C 82.210938 568.679688 83.265625 569.675781 84.125 571.09375 C 84.988281 572.515625 85.414063 574.128906 85.414063 575.925781 C 85.414063 577.582031 85.046875 579.078125 84.3125 580.414063 C 83.574219 581.75 82.617188 582.734375 81.4375 583.378906 C 83.109375 583.96875 84.414063 584.984375 85.359375 586.425781 C 86.304688 587.859375 86.777344 589.609375 86.777344 591.675781 C 86.777344 594.175781 86.175781 596.289063 84.972656 598.011719 C 83.769531 599.742188 82.347656 600.804688 80.707031 601.214844 C 79.566406 601.496094 76.914063 601.636719 72.761719 601.636719 L 63.175781 601.636719 "/>
<path style=" stroke:none;fill-rule:nonzero;fill:rgb(5.099487%,45.498657%,65.899658%);fill-opacity:1;" d="M 97.277344 581.808594 L 101.496094 581.808594 C 104.074219 581.808594 105.714844 581.695313 106.417969 581.46875 C 107.121094 581.242188 107.691406 580.785156 108.128906 580.097656 C 108.566406 579.410156 108.785156 578.492188 108.785156 577.355469 C 108.785156 576.261719 108.566406 575.378906 108.128906 574.71875 C 107.691406 574.054688 107.097656 573.597656 106.347656 573.347656 C 105.816406 573.171875 104.277344 573.085938 101.730469 573.085938 L 97.277344 573.085938 Z M 91.605469 601.636719 L 91.605469 567.277344 L 103.582031 567.277344 C 106.644531 567.277344 108.832031 567.582031 110.144531 568.203125 C 111.457031 568.820313 112.535156 569.890625 113.378906 571.410156 C 114.222656 572.9375 114.644531 574.761719 114.644531 576.886719 C 114.644531 579.574219 114 581.738281 112.710938 583.375 C 111.421875 585.019531 109.589844 586.046875 107.214844 586.472656 C 108.433594 587.347656 109.441406 588.304688 110.238281 589.34375 C 111.035156 590.378906 112.121094 592.246094 113.496094 594.933594 L 116.917969 601.636719 L 110.128906 601.636719 L 106.015625 594.160156 C 104.53125 591.453125 103.527344 589.765625 102.996094 589.082031 C 102.464844 588.40625 101.902344 587.9375 101.308594 587.679688 C 100.714844 587.417969 99.761719 587.289063 98.449219 587.289063 L 97.277344 587.289063 L 97.277344 601.636719 "/>
<path style=" stroke:none;fill-rule:nonzero;fill:rgb(5.099487%,45.498657%,65.899658%);fill-opacity:1;" d="M 134.953125 588.042969 L 131.0625 575.292969 L 127.246094 588.042969 Z M 145.417969 601.636719 L 139.25 601.636719 L 136.78125 593.855469 L 125.503906 593.855469 L 123.175781 601.636719 L 117.128906 601.636719 L 128.097656 567.273438 L 134.121094 567.273438 "/>
<path style=" stroke:none;fill-rule:nonzero;fill:rgb(5.099487%,45.498657%,65.899658%);fill-opacity:1;" d="M 150.964844 590.433594 L 156.519531 589.777344 C 157.144531 594.164063 159.191406 596.363281 162.65625 596.363281 C 164.378906 596.363281 165.730469 595.910156 166.714844 595.015625 C 167.695313 594.117188 168.191406 593 168.191406 591.671875 C 168.191406 590.898438 168.019531 590.234375 167.675781 589.6875 C 167.328125 589.140625 166.808594 588.691406 166.105469 588.335938 C 165.402344 587.988281 163.695313 587.398438 160.992188 586.570313 C 158.570313 585.835938 156.800781 585.039063 155.675781 584.183594 C 154.550781 583.328125 153.652344 582.199219 152.988281 580.796875 C 152.324219 579.402344 151.992188 577.902344 151.992188 576.289063 C 151.992188 574.414063 152.421875 572.734375 153.273438 571.234375 C 154.121094 569.734375 155.300781 568.605469 156.800781 567.835938 C 158.300781 567.074219 160.152344 566.691406 162.355469 566.691406 C 165.664063 566.691406 168.253906 567.585938 170.109375 569.386719 C 171.972656 571.183594 172.953125 573.75 173.066406 577.097656 L 167.367188 577.402344 C 167.117188 575.558594 166.578125 574.269531 165.753906 573.535156 C 164.925781 572.796875 163.742188 572.433594 162.214844 572.433594 C 160.683594 572.433594 159.503906 572.75 158.675781 573.390625 C 157.847656 574.03125 157.433594 574.824219 157.433594 575.773438 C 157.433594 576.707031 157.808594 577.492188 158.558594 578.128906 C 159.3125 578.773438 161.039063 579.476563 163.738281 580.242188 C 166.601563 581.070313 168.664063 581.941406 169.9375 582.855469 C 171.210938 583.769531 172.183594 584.949219 172.855469 586.394531 C 173.527344 587.835938 173.859375 589.59375 173.859375 591.65625 C 173.859375 594.636719 172.941406 597.144531 171.109375 599.171875 C 169.273438 601.203125 166.402344 602.222656 162.492188 602.222656 C 155.589844 602.222656 151.742188 598.289063 150.964844 590.433594 "/>
<path style=" stroke:none;fill-rule:nonzero;fill:rgb(5.099487%,45.498657%,65.899658%);fill-opacity:1;" d="M 178.480469 601.632813 L 184.152344 601.632813 L 184.152344 567.273438 L 178.480469 567.273438 Z M 178.480469 601.632813 "/>
<path style=" stroke:none;fill-rule:nonzero;fill:rgb(5.099487%,45.498657%,65.899658%);fill-opacity:1;" d="M 189.753906 601.636719 L 189.753906 567.558594 L 195.425781 567.558594 L 195.425781 595.820313 L 209.582031 595.820313 L 209.582031 601.636719 "/>
<path style=" stroke:none;fill-rule:nonzero;fill:rgb(5.099487%,45.498657%,65.899658%);fill-opacity:1;" d="M 213.660156 601.636719 L 213.660156 567.277344 L 234.566406 567.277344 L 234.566406 573.089844 L 219.332031 573.089844 L 219.332031 580.703125 L 233.488281 580.703125 L 233.488281 586.492188 L 219.332031 586.492188 L 219.332031 595.820313 L 235.082031 595.820313 L 235.082031 601.636719 "/>
<path style=" stroke:none;fill-rule:nonzero;fill:rgb(5.099487%,45.498657%,65.899658%);fill-opacity:1;" d="M 239.722656 601.632813 L 245.394531 601.632813 L 245.394531 567.273438 L 239.722656 567.273438 Z M 239.722656 601.632813 "/>
<path style=" stroke:none;fill-rule:nonzero;fill:rgb(5.099487%,45.498657%,65.899658%);fill-opacity:1;" d="M 256.527344 581.808594 L 260.746094 581.808594 C 263.324219 581.808594 264.964844 581.695313 265.667969 581.46875 C 266.371094 581.242188 266.941406 580.785156 267.378906 580.097656 C 267.816406 579.410156 268.035156 578.492188 268.035156 577.355469 C 268.035156 576.261719 267.816406 575.378906 267.378906 574.71875 C 266.941406 574.054688 266.347656 573.597656 265.597656 573.347656 C 265.066406 573.171875 263.527344 573.085938 260.980469 573.085938 L 256.527344 573.085938 Z M 250.855469 601.636719 L 250.855469 567.277344 L 262.832031 567.277344 C 265.894531 567.277344 268.082031 567.582031 269.394531 568.203125 C 270.707031 568.820313 271.785156 569.890625 272.628906 571.410156 C 273.472656 572.9375 273.894531 574.761719 273.894531 576.886719 C 273.894531 579.574219 273.25 581.738281 271.960938 583.375 C 270.671875 585.019531 268.839844 586.046875 266.464844 586.472656 C 267.683594 587.347656 268.691406 588.304688 269.488281 589.34375 C 270.285156 590.378906 271.371094 592.246094 272.746094 594.933594 L 276.167969 601.636719 L 269.378906 601.636719 L 265.265625 594.160156 C 263.78125 591.453125 262.777344 589.765625 262.246094 589.082031 C 261.714844 588.40625 261.152344 587.9375 260.558594 587.679688 C 259.964844 587.417969 259.011719 587.289063 257.699219 587.289063 L 256.527344 587.289063 L 256.527344 601.636719 "/>
<path style=" stroke:none;fill-rule:nonzero;fill:rgb(5.099487%,45.498657%,65.899658%);fill-opacity:1;" d="M 294.203125 588.042969 L 290.3125 575.292969 L 286.496094 588.042969 Z M 304.667969 601.636719 L 298.5 601.636719 L 296.03125 593.855469 L 284.753906 593.855469 L 282.425781 601.636719 L 276.378906 601.636719 L 287.347656 567.273438 L 293.375 567.273438 "/>
<path style=" stroke:none;fill-rule:nonzero;fill:rgb(5.099487%,45.498657%,65.899658%);fill-opacity:1;" d="M 312.355469 584.433594 C 312.355469 588.386719 313.105469 591.351563 314.609375 593.328125 C 316.109375 595.304688 317.972656 596.289063 320.195313 596.289063 C 322.433594 596.289063 324.285156 595.3125 325.757813 593.351563 C 327.226563 591.390625 327.964844 588.375 327.964844 584.316406 C 327.964844 580.328125 327.246094 577.386719 325.816406 575.480469 C 324.382813 573.574219 322.511719 572.617188 320.195313 572.617188 C 317.878906 572.617188 315.992188 573.578125 314.539063 575.5 C 313.085938 577.421875 312.355469 580.402344 312.355469 584.433594 M 306.496094 584.664063 C 306.496094 580.574219 307.101563 577.203125 308.3125 574.554688 C 309.523438 571.90625 311.105469 569.933594 313.058594 568.636719 C 315.011719 567.335938 317.378906 566.691406 320.160156 566.691406 C 324.191406 566.691406 327.476563 568.230469 330.015625 571.308594 C 332.554688 574.386719 333.824219 578.769531 333.824219 584.453125 C 333.824219 590.203125 332.480469 594.699219 329.792969 597.933594 C 327.433594 600.789063 324.230469 602.222656 320.183594 602.222656 C 316.105469 602.222656 312.886719 600.808594 310.527344 597.980469 C 307.839844 594.746094 306.496094 590.308594 306.496094 584.664063 "/>
<path style=" stroke:none;fill-rule:nonzero;fill:rgb(5.099487%,45.498657%,65.899658%);fill-opacity:1;" d="M 287.332031 564.828125 L 284.871094 564.828125 L 284.847656 564.054688 C 284.847656 562.347656 285.179688 561.054688 285.847656 560.191406 C 286.511719 559.332031 287.355469 558.894531 288.371094 558.894531 C 288.808594 558.894531 289.226563 558.960938 289.617188 559.085938 C 290.007813 559.210938 290.640625 559.507813 291.519531 559.972656 C 292.679688 560.597656 293.539063 560.914063 294.101563 560.914063 C 294.996094 560.914063 295.519531 560.230469 295.675781 558.875 L 298.136719 558.875 C 298.121094 561 297.796875 562.511719 297.167969 563.410156 C 296.535156 564.304688 295.722656 564.757813 294.722656 564.757813 C 294.300781 564.757813 293.890625 564.703125 293.484375 564.59375 C 293.1875 564.511719 292.5 564.222656 291.425781 563.722656 C 290.132813 563.117188 289.210938 562.808594 288.667969 562.808594 C 288.277344 562.808594 287.960938 562.964844 287.71875 563.261719 C 287.476563 563.5625 287.347656 564.085938 287.332031 564.828125 "/>
<path style=" stroke:none;fill-rule:nonzero;fill:rgb(5.099487%,45.498657%,65.899658%);fill-opacity:1;" d="M 337.480469 598.269531 L 341.082031 598.269531 L 341.082031 594.667969 L 337.480469 594.667969 Z M 337.480469 598.269531 "/>
<path style=" stroke:none;fill-rule:nonzero;fill:rgb(9.799194%,63.899231%,29.798889%);fill-opacity:1;" d="M 64.503906 55.695313 L 64.503906 50.964844 C 65.074219 51.464844 65.636719 51.839844 66.191406 52.089844 C 66.742188 52.339844 67.300781 52.464844 67.859375 52.464844 C 68.632813 52.464844 69.238281 52.257813 69.683594 51.851563 C 70.125 51.445313 70.347656 50.894531 70.347656 50.195313 C 70.347656 49.332031 69.746094 48.394531 68.550781 47.382813 C 68.214844 47.101563 67.964844 46.882813 67.800781 46.726563 C 66.402344 45.476563 65.445313 44.355469 64.925781 43.359375 C 64.402344 42.367188 64.144531 41.238281 64.144531 39.976563 C 64.144531 38.007813 64.699219 36.417969 65.808594 35.203125 C 66.917969 33.992188 68.367188 33.382813 70.160156 33.382813 C 70.792969 33.382813 71.421875 33.476563 72.042969 33.65625 C 72.660156 33.839844 73.316406 34.125 74.003906 34.507813 L 74.003906 38.539063 C 73.199219 38.15625 72.578125 37.890625 72.136719 37.742188 C 71.691406 37.597656 71.300781 37.523438 70.957031 37.523438 C 70.300781 37.523438 69.761719 37.730469 69.347656 38.140625 C 68.929688 38.554688 68.722656 39.09375 68.722656 39.757813 C 68.722656 40.34375 68.878906 40.886719 69.191406 41.390625 C 69.503906 41.898438 70.230469 42.644531 71.378906 43.632813 C 72.910156 44.945313 73.894531 46.039063 74.332031 46.90625 C 74.769531 47.777344 74.984375 48.828125 74.984375 50.054688 C 74.984375 52.128906 74.402344 53.765625 73.230469 54.96875 C 72.058594 56.175781 70.460938 56.773438 68.441406 56.773438 C 67.667969 56.773438 66.957031 56.6875 66.308594 56.511719 C 65.65625 56.332031 65.054688 56.0625 64.503906 55.695313 "/>
<path style=" stroke:none;fill-rule:nonzero;fill:rgb(9.799194%,63.899231%,29.798889%);fill-opacity:1;" d="M 116.199219 47.523438 C 116.171875 46.410156 115.96875 45.585938 115.597656 45.050781 C 115.230469 44.511719 114.675781 44.246094 113.933594 44.246094 C 113.203125 44.246094 112.648438 44.523438 112.261719 45.089844 C 111.878906 45.648438 111.683594 46.46875 111.683594 47.539063 Z M 111.683594 49.964844 L 111.683594 50.089844 C 111.683594 51.234375 111.886719 52.113281 112.296875 52.730469 C 112.699219 53.34375 113.277344 53.648438 114.027344 53.648438 C 114.507813 53.648438 114.917969 53.503906 115.253906 53.214844 C 115.59375 52.921875 115.867188 52.480469 116.074219 51.882813 L 119.71875 51.882813 C 119.382813 53.414063 118.691406 54.613281 117.644531 55.480469 C 116.597656 56.34375 115.3125 56.773438 113.796875 56.773438 C 111.886719 56.773438 110.371094 56.0625 109.246094 54.632813 C 108.121094 53.207031 107.558594 51.28125 107.558594 48.855469 C 107.558594 46.394531 108.121094 44.453125 109.246094 43.023438 C 110.371094 41.597656 111.886719 40.882813 113.796875 40.882813 C 115.8125 40.882813 117.34375 41.589844 118.371094 42.996094 C 119.402344 44.398438 119.921875 46.480469 119.921875 49.230469 L 119.921875 49.964844 "/>
<path style=" stroke:none;fill-rule:nonzero;fill:rgb(9.799194%,63.899231%,29.798889%);fill-opacity:1;" d="M 153.226563 56.492188 L 153.226563 41.164063 L 157.164063 41.164063 L 157.164063 43.886719 C 157.507813 42.886719 157.96875 42.136719 158.539063 41.640625 C 159.113281 41.148438 159.804688 40.894531 160.617188 40.886719 L 160.617188 44.914063 L 160.335938 44.914063 C 159.222656 44.914063 158.464844 45.179688 158.0625 45.703125 C 157.664063 46.230469 157.460938 47.425781 157.460938 49.289063 L 157.460938 56.492188 "/>
<path style=" stroke:none;fill-rule:nonzero;fill:rgb(9.799194%,63.899231%,29.798889%);fill-opacity:1;" d="M 193.644531 41.164063 L 197.878906 41.164063 L 197.878906 56.492188 L 193.644531 56.492188 Z M 193.332031 37.070313 C 193.332031 36.375 193.5625 35.789063 194.027344 35.3125 C 194.492188 34.839844 195.070313 34.605469 195.769531 34.605469 C 196.4375 34.605469 197.007813 34.84375 197.480469 35.320313 C 197.953125 35.800781 198.191406 36.386719 198.191406 37.070313 C 198.191406 37.738281 197.957031 38.304688 197.488281 38.769531 C 197.019531 39.230469 196.445313 39.464844 195.769531 39.464844 C 195.070313 39.464844 194.492188 39.234375 194.027344 38.78125 C 193.5625 38.328125 193.332031 37.761719 193.332031 37.070313 "/>
<path style=" stroke:none;fill-rule:nonzero;fill:rgb(9.799194%,63.899231%,29.798889%);fill-opacity:1;" d="M 240.046875 47.523438 C 240.015625 46.410156 239.8125 45.585938 239.445313 45.050781 C 239.074219 44.511719 238.519531 44.246094 237.78125 44.246094 C 237.050781 44.246094 236.492188 44.523438 236.109375 45.089844 C 235.722656 45.648438 235.53125 46.46875 235.53125 47.539063 Z M 235.53125 49.964844 L 235.53125 50.089844 C 235.53125 51.234375 235.734375 52.113281 236.140625 52.730469 C 236.546875 53.34375 237.125 53.648438 237.875 53.648438 C 238.351563 53.648438 238.761719 53.503906 239.101563 53.214844 C 239.4375 52.921875 239.710938 52.480469 239.921875 51.882813 L 243.5625 51.882813 C 243.226563 53.414063 242.539063 54.613281 241.492188 55.480469 C 240.445313 56.34375 239.160156 56.773438 237.640625 56.773438 C 235.734375 56.773438 234.21875 56.0625 233.09375 54.632813 C 231.96875 53.207031 231.40625 51.28125 231.40625 48.855469 C 231.40625 46.394531 231.96875 44.453125 233.09375 43.023438 C 234.21875 41.597656 235.734375 40.882813 237.640625 40.882813 C 239.660156 40.882813 241.1875 41.589844 242.21875 42.996094 C 243.25 44.398438 243.765625 46.480469 243.765625 49.230469 L 243.765625 49.964844 "/>
<path style=" stroke:none;fill-rule:nonzero;fill:rgb(9.799194%,63.899231%,29.798889%);fill-opacity:1;" d="M 319.648438 48.945313 L 322.679688 48.945313 C 322.367188 47.351563 322.085938 45.683594 321.835938 43.9375 C 321.585938 42.195313 321.367188 40.351563 321.179688 38.414063 C 320.949219 40.125 320.707031 41.855469 320.453125 43.609375 C 320.195313 45.367188 319.929688 47.144531 319.648438 48.945313 M 313.570313 56.492188 L 318.882813 33.679688 L 323.648438 33.679688 L 328.710938 56.492188 L 324.164063 56.492188 L 323.398438 52.492188 L 318.820313 52.492188 L 318.117188 56.492188 "/>
</g>
</svg>
